<svg width="82" height="86" viewBox="0 0 82 86" fill="none" xmlns="http://www.w3.org/2000/svg">
<path d="M59.4364 9.15168C58.7346 9.12104 58.0226 9.20615 57.3209 9.13126C51.3543 8.48102 51.5083 0.770148 57.4646 0.307155C63.7187 -0.179668 70.6198 0.668017 76.939 0.330986C80.8893 0.790574 82.5119 5.61796 79.3455 8.12697C77.9283 9.25041 76.2133 9.17211 74.4777 9.15168L74.5188 25.5164C75.9086 28.5838 77.0109 31.8315 77.2402 35.2189C78.2329 35.9304 79.301 36.0291 80.1191 37.1151C82.3236 40.0462 80.2834 43.9715 76.7233 44.1894C76.3468 46.4805 75.467 48.6491 74.5188 50.7496L74.4812 70.5153H77.473C78.2192 70.5153 79.6227 71.5502 80.0917 72.1596C82.3236 75.0601 80.4135 78.924 76.7952 79.193C70.3939 79.6662 63.4141 78.8185 56.9512 79.193C52.6311 78.8015 51.4056 73.0243 55.243 71.0191C55.4107 70.9306 56.3795 70.5153 56.4445 70.5153H59.4364V64.7347C51.8951 67.6284 43.6316 67.356 36.2787 64.0504C34.5774 65.0581 33.4135 67.7271 31.1508 67.6318C28.8881 67.5365 26.8411 64.1763 25.1603 62.8691L22.1821 65.8649C23.5719 67.5943 25.6498 68.9459 23.9553 71.3561C19.5703 75.2405 15.5857 80.3845 11.1493 84.1191C5.97347 88.4733 -1.08166 83.7923 1.06466 77.661C1.78695 75.6014 3.9675 74.495 5.16561 72.7281C8.75992 70.1135 11.9469 65.2419 15.4214 62.6989C17.5643 61.1328 19.3272 63.0938 20.7204 64.5644L23.6986 61.5686C23.7876 61.0682 19.3683 57.7591 19.1081 56.1421C18.6665 53.3913 21.2202 52.3802 22.6579 50.5181C16.4757 37.3364 21.0217 21.4516 33.4683 13.8429C41.345 9.02572 50.7929 8.26655 59.4364 11.5347V9.15509V9.15168ZM56.6533 2.39062C54.1818 3.12937 54.3838 6.7448 56.9717 7.09545H77.117C79.7323 6.39415 79.722 3.06128 77.117 2.36339L56.6533 2.39062ZM72.5984 9.15168H61.4868V12.4675C64.5882 14.1697 67.5595 16.2225 69.9523 18.8405C70.8868 19.8618 71.6228 21.0908 72.5984 22.0712V9.15168ZM46.2401 11.5824C28.0905 12.9918 16.8557 32.2435 24.0751 48.8193C31.945 66.8862 56.7903 70.4574 69.3464 55.1276C84.4562 36.6861 70.0139 9.73723 46.2401 11.5824ZM77.2163 42.1263C79.4379 41.4557 79.7734 38.6266 77.6407 37.5406C77.295 37.4964 77.4182 37.5543 77.3874 37.7892C77.2128 39.0862 77.4661 40.7612 77.2163 42.1263ZM34.307 62.8657C29.8124 60.486 26.2488 56.6289 23.6233 52.3258C22.5963 53.7454 20.0872 54.542 21.4872 56.4859C22.5518 57.9634 24.6297 59.4307 25.9373 60.7277C26.9301 61.715 29.4461 64.8538 30.4833 65.3883C30.9112 65.6096 31.4555 65.6981 31.9107 65.4904C32.0545 65.4257 33.9955 63.4989 34.1392 63.2878C34.2385 63.1448 34.372 63.1108 34.3035 62.8623L34.307 62.8657ZM72.5984 70.5119V54.1948C69.6305 58.1132 66.0191 61.6265 61.4868 63.7134V70.5119H72.5984ZM16.8215 64.0776C16.1266 64.2683 13.0046 68.122 12.0872 68.728L17.9819 74.4269C18.1976 74.4269 18.2797 74.2771 18.4167 74.1749C19.1937 73.5792 21.6652 71.1212 22.2574 70.345C22.4389 70.1067 22.6614 69.9059 22.6716 69.5757C22.6716 68.8097 20.5219 67.2505 19.9502 66.6854C19.3101 66.0556 17.8005 63.8087 16.8249 64.0776H16.8215ZM10.6564 70.185L7.30166 73.4873L12.8472 79.0228C12.9875 79.1623 13.1381 79.2168 13.3333 79.1657C13.5558 79.1079 16.5579 76.1188 16.5168 75.8942L10.6564 70.1884V70.185ZM57.1737 72.4285C54.0757 72.9324 54.1407 76.9189 57.3174 77.2933C63.2772 77.998 70.5206 76.8031 76.6172 77.3138C79.8692 76.9495 79.9308 72.9119 76.7712 72.3979L57.1737 72.4285ZM5.86735 74.9443C3.79977 76.6908 1.42409 79.0772 3.22125 81.9573C5.48054 85.5761 9.93065 83.605 11.7278 80.65L5.86735 74.9443Z" fill="black"/>
<path d="M48.2941 15.4836C66.8134 15.1874 77.9661 36.0595 67.2687 51.1885C57.7386 64.663 37.1278 63.7268 28.9191 49.4387C20.3338 34.4969 31.0483 15.7593 48.2941 15.4836ZM53.9663 34.8169V18.2445C52.9496 17.819 51.4434 17.55 50.2967 17.4717C35.6764 16.4845 24.6196 29.9862 28.7137 44.0325C31.459 53.449 40.6434 59.5088 50.4576 58.7802C51.5427 58.6985 53.0044 58.4228 53.9629 58.0177V44.676H50.2864C49.3382 44.676 47.6095 43.2053 47.1166 42.3882C45.3502 39.4503 47.3357 34.8169 50.7965 34.8169H53.9595H53.9663ZM69.1788 34.8169C68.1245 27.6235 62.9042 21.2438 56.0168 18.8403V34.8169H69.1788ZM69.2644 36.8562H50.461C50.1563 36.8562 48.9651 37.9115 48.7597 38.2247C47.6814 39.8724 48.681 42.235 50.5774 42.6912L68.9084 42.8172C69.1857 42.7695 69.617 37.8026 69.5212 37.2817C69.4869 37.0911 69.4356 36.9651 69.2644 36.8562ZM68.3265 44.676H56.0168V57.4253C61.7574 55.4201 66.5875 50.494 68.3265 44.676Z" fill="black"/>
<path d="M36.4802 25.5024C37.4866 25.196 37.9727 25.9552 37.692 26.8777C37.5961 27.1944 36.8088 27.7663 36.535 28.1067C31.8692 33.9622 31.6501 41.5267 36.0455 47.6205C36.6069 48.3967 38.1233 49.4623 37.6406 50.4563C36.9115 51.9509 35.3061 49.7687 34.8234 49.1763C29.9933 43.2187 29.6305 34.7588 33.8957 28.3757C34.2586 27.8344 35.9804 25.6556 36.4802 25.5024Z" fill="black"/>
</svg>
