<svg width="88" height="85" viewBox="0 0 88 85" fill="none" xmlns="http://www.w3.org/2000/svg">
<path d="M7.71847 51.9072C4.4348 52.2196 0.783639 51.7103 0.419543 47.7446C0.160933 44.9299 0.160933 39.1885 0.419543 36.3738C0.783639 32.4081 4.4314 31.8988 7.71847 32.2111C8.33097 29.556 9.52874 27.0673 10.7673 24.6532C10.8014 24.2797 8.69506 22.5651 8.34117 22.0456C7.07535 20.1918 7.43264 18.0766 8.75971 16.3823C10.2263 14.5115 14.524 10.3014 16.4023 8.74631C17.4572 7.87372 18.2943 7.40517 19.7166 7.40517C22.364 7.40517 22.9628 9.21826 24.8242 10.539L32.2115 7.56815C32.5314 7.33048 32.3375 5.12694 32.3987 4.53276C32.6913 1.68751 34.6751 0.36335 37.3837 0.180004C40.0923 -0.0033411 44.6316 -0.0271081 47.4253 0.180004C49.9127 0.366745 51.9374 1.73844 52.2436 4.3596C52.3185 4.99452 52.0939 7.32029 52.4274 7.56815L59.8284 10.5254C60.2333 10.5153 61.7067 8.70897 62.2069 8.32869C64.109 6.8823 66.3719 7.20485 68.1549 8.65804C69.5024 9.75811 75.8758 16.0326 76.5359 17.2481C77.3662 18.7726 77.2573 20.7419 76.2229 22.1373C75.8622 22.6262 73.8375 24.2831 73.8716 24.6498C75.185 27.0435 76.1888 29.5628 77.0668 32.1466C80.3368 31.9803 83.8757 32.4183 84.216 36.3704C84.4644 39.2224 84.495 45.0793 84.2092 47.9008C84.09 49.0687 83.5422 49.8463 82.8753 50.7562C83.6953 51.8936 84.5732 52.902 85.2606 54.1481C88.466 59.9744 88.1461 67.2845 84.25 72.6931C83.6409 73.5386 82.4465 75.4264 81.2317 74.4383C79.891 73.3484 82.1199 71.4063 82.7528 70.3504C91.423 55.8967 72.9936 40.3802 60.2469 51.1229C47.7826 61.6313 58.6068 81.6533 74.3922 76.9305C75.4096 76.6249 78.176 74.8729 78.7001 76.4585C79.2241 78.0441 77.39 78.5466 76.2705 78.971C70.1489 81.307 63.7041 80.173 58.6408 76.1224C58.3243 75.8677 57.4464 74.7677 57.1368 74.7982L52.3389 76.6283C52.1721 79.0254 52.6451 80.981 50.6545 82.7432C49.7119 83.5784 48.6707 83.8399 47.4287 83.9315C44.635 84.1387 40.0107 84.1421 37.2204 83.9315C34.5901 83.7346 32.6845 82.2984 32.4055 79.5822C32.3443 78.988 32.5382 76.7845 32.2184 76.5468L24.831 73.5759C22.9696 74.8933 22.3708 76.7098 19.7234 76.7098C18.3011 76.7098 17.464 76.2412 16.4091 75.3686C14.4729 73.7661 10.4066 69.7562 8.84818 67.8243C7.46326 66.1131 7.04812 63.9774 8.35138 62.0693C8.70527 61.5498 10.8116 59.8352 10.7776 59.4617C9.53895 57.0477 8.34117 54.5589 7.72868 51.9038L7.71847 51.9072ZM35.9444 64.0963V51.2961C26.6072 46.9161 24.147 34.4045 31.8645 27.2235C33.8891 25.3391 38.2753 22.7858 38.67 27.3898C38.9048 30.1298 38.0677 36.7846 39.0783 38.8489C40.8103 42.3902 45.6423 41.1747 45.9791 37.4025C46.265 34.1872 45.615 30.3879 45.9723 27.2235C46.4623 22.8741 50.7804 25.3798 52.6894 27.1352C60.5021 34.3128 58.1168 46.889 48.6911 51.2961V64.0963L52.2334 62.8842C52.2572 55.0071 57.4941 47.8193 65.1571 45.7685C65.984 39.6163 64.7045 33.644 61.067 28.6155C55.2414 20.5585 44.9787 17.1293 35.3999 20.0696C34.4846 20.3514 31.4221 21.8929 30.9355 21.8963C29.6527 21.8997 29.1491 20.4057 30.2584 19.5162C32.8308 17.4416 40.2523 16.3008 43.5189 16.457C58.6884 17.1734 68.2604 29.5798 67.9065 44.1863C67.8997 44.4579 67.716 44.9129 67.7398 45.0182C67.8249 45.4392 68.4782 45.1132 68.8253 45.103C73.402 44.9944 77.322 46.2439 80.9833 48.9363C81.3542 48.5628 81.6026 48.0977 81.6639 47.5714C82.079 44.1456 81.3576 39.9049 81.6503 36.3907C81.1773 33.3486 76.148 35.7083 75.0251 34.3094C74.6168 33.8035 73.6674 30.2045 73.2455 29.1791C72.8711 28.2692 70.9486 24.8603 70.9486 24.3443C70.9418 22.2663 76.4849 21.0916 73.681 17.7302C72.3335 16.1141 68.1379 11.8157 66.525 10.6307C65.773 10.0773 65.1265 9.79546 64.1499 10.0976C63.2481 10.3761 61.5297 12.9938 60.7573 13.3232C60.4034 13.4726 59.8896 13.4624 59.5187 13.3741C58.8654 13.2213 56.8169 11.9005 55.9458 11.5169C54.0335 10.6748 52.0156 10.1418 50.059 9.42198C48.8647 6.97058 51.3181 3.07279 47.2552 2.72647C44.6793 2.50578 40.1502 2.53294 37.5539 2.72647C32.8955 3.06939 36.0499 8.13177 34.5833 9.42537C34.243 9.72416 30.5374 10.7801 29.6663 11.1332C28.1384 11.7511 26.6719 12.5083 25.2495 13.3367C22.5681 14.0769 21.3874 8.33548 18.444 10.4474L10.2773 18.7454C9.19527 21.0135 13.8196 22.7451 13.7039 24.5242C13.6733 25.0165 11.9243 28.0315 11.5704 28.8532C10.8286 30.578 10.2603 32.3605 9.76013 34.1668C8.67464 35.9358 3.3289 33.0735 2.97502 36.7201C2.72662 39.2733 2.72662 44.8654 2.97502 47.4152C3.3187 50.9735 8.26291 48.3591 9.62061 49.7716C9.83158 49.9923 11.2369 54.5182 11.6214 55.4043C12.2237 56.793 13.0064 58.107 13.6869 59.4549C14 61.3631 9.19186 63.0471 10.2773 65.3899L18.444 73.688C20.9382 75.827 22.8574 70.4557 24.7561 70.6356C25.3107 70.6865 28.6863 72.6083 29.6663 73.0021C30.5816 73.3688 34.192 74.3636 34.5833 74.7066C35.9852 75.9356 33.0384 81.032 37.3871 81.4021C39.963 81.6227 44.4921 81.5956 47.0884 81.4021C47.9527 81.3375 48.8613 81.2391 49.3513 80.4378C50.219 79.0084 49.2424 75.6369 49.9774 74.788C50.4606 74.2312 55.4558 73.2398 55.4898 72.666C54.0437 70.5711 52.9378 68.1706 52.6043 65.6276C50.6273 66.2523 48.7524 66.9279 46.6903 67.2709C25.5115 70.7884 9.55256 48.5527 19.8901 29.6884C20.9076 27.8312 23.8578 23.7569 25.5932 22.6636C26.8318 21.8861 28.0704 23.0235 27.5362 24.2628C27.383 24.6227 25.5285 26.2151 25.0794 26.7278C13.8673 39.5585 19.6315 59.5262 35.9512 64.1031L35.9444 64.0963ZM36.1145 27.4781C34.294 28.1775 32.477 30.1061 31.497 31.7731C28.3086 37.1886 29.8296 44.2576 35.0426 47.7887C35.9682 48.4168 37.217 48.753 37.9758 49.2725C38.1187 49.3709 38.4964 49.8293 38.4964 49.9413V64.7753C41.0349 65.1998 43.6074 65.2303 46.1425 64.7753V49.9413C46.1425 49.4354 49.0552 48.1622 49.6915 47.7174C55.2891 43.8332 56.5243 35.9426 52.3321 30.5441C51.4133 29.3625 49.9501 27.9772 48.521 27.4781V38.2412C48.521 38.8489 47.4287 40.7673 46.9863 41.2901C44.2063 44.5734 39.2825 44.1354 37.1013 40.4787C36.8563 40.0678 36.1145 38.4483 36.1145 38.0714V27.4781Z" fill="black"/>
<path d="M75.6545 53.8184C78.9484 53.8082 81.0411 57.4208 79.486 60.3136L71.2037 70.1905C69.8051 71.3007 68.0425 71.5044 66.4194 70.7337C65.4734 70.2855 61.1281 66.5269 60.6211 65.6679C58.3991 61.906 62.0877 57.7128 66.0723 59.3833C66.6236 59.6141 67.6376 60.5988 67.9506 60.5173C70.2543 58.4462 72.1769 53.8286 75.6579 53.8184H75.6545ZM74.9807 56.5041C74.6779 56.572 74.4737 56.7655 74.2594 56.9692C72.5648 58.5752 71.0233 61.2099 69.339 62.911C67.4164 64.8497 66.9842 62.9008 65.3986 61.9195C63.6666 60.8466 61.7746 62.585 62.7206 64.2521C62.9962 64.7342 66.712 67.9224 67.3245 68.3061C68.1344 68.812 68.6482 68.7407 69.4819 68.3129C71.663 65.4167 74.6269 62.6767 76.723 59.7703C78.0262 57.964 77.3354 55.9676 74.9773 56.5041H74.9807Z" fill="black"/>
</svg>
