<svg width="89" height="84" viewBox="0 0 89 84" fill="none" xmlns="http://www.w3.org/2000/svg">
<path d="M1.71327 8.06335C0.369978 7.79627 0.147805 5.9438 1.54579 5.50209H23.0454L23.3974 5.33773C23.4555 2.89632 25.0347 1.12604 27.482 0.882921C29.1295 0.718562 33.6174 0.698017 35.0188 1.3623C38.3343 2.93398 37.0252 7.20046 37.3158 10.087C39.8588 10.3849 42.3095 10.6041 44.8013 11.2204C57.3319 14.3227 67.5656 24.5198 70.7273 37.0453C71.9065 41.7158 71.8552 46.1741 71.7629 50.9644C74.0394 49.9372 76.4525 49.8482 78.6435 51.1665C79.6689 51.7862 80.3252 52.8683 81.5215 53.2415C83.2066 53.7688 84.6729 52.7758 86.1666 53.375C87.1886 53.7859 87.8893 54.9262 87.9816 56.0013C88.6139 63.1715 87.5099 71.2833 87.9577 78.5527C87.5168 81.3571 85.3907 83.076 82.6084 83.2781H5.80469C3.00872 82.9767 0.848506 81.1208 0.598988 78.2343C-0.0128441 71.1395 1.0741 63.1852 0.598988 55.9979C0.602406 54.7755 1.70302 53.3921 2.91985 53.197C5.00828 52.858 6.00635 54.19 8.26911 52.5704C10.6617 50.8583 11.5846 49.6427 14.948 50.3549C17.932 50.985 18.8275 54.0633 22.1464 53.3065C23.8008 52.9299 24.6108 51.4198 26.084 50.7556C27.8956 49.9406 29.9259 49.9885 31.7238 50.8138C33.5217 51.639 34.2258 53.423 36.5535 53.4572C38.6727 53.488 39.452 51.9266 41.0449 51.0432C42.0122 50.5056 42.8052 50.3412 43.875 50.1187C44.5484 44.9448 43.1709 39.2128 37.2918 38.3122V43.6984C37.2918 44.7599 35.5281 46.4069 34.53 46.7425C33.0671 47.239 27.2564 47.2287 25.855 46.6055C24.7373 46.109 23.7939 44.8318 23.5102 43.6573C23.4145 43.2635 23.623 42.5821 23.1889 42.4383L1.54237 42.4109C0.674185 42.137 0.24351 41.0995 0.862179 40.3701C0.940794 40.2777 1.662 39.8531 1.70986 39.8531H23.4692V8.06335H1.71327ZM37.2987 12.8503V18.4043C37.2987 19.2637 35.1009 19.8253 34.7796 18.0208C34.301 13.9426 35.282 8.84405 34.7454 4.89259C34.6155 3.92698 33.8328 3.54348 32.9475 3.4476C31.7785 3.31749 28.9962 3.31749 27.8272 3.4476C27.024 3.53663 26.3882 3.81741 26.0772 4.60154V43.3217C26.3404 44.0477 27.0855 44.3901 27.8272 44.4757C28.9791 44.6058 31.7956 44.6058 32.9475 44.4757C33.6311 44.3969 34.3489 44.0956 34.6428 43.445L34.742 24.2185C34.7693 22.5475 36.8577 21.9859 37.3089 23.698L37.3226 35.4805C38.2626 36.0146 39.4247 36.0968 40.4877 36.583C46.1104 39.1374 46.8795 45.0509 46.5411 50.6049C48.6261 51.2315 49.5763 53.4332 51.9177 53.4709C54.3719 53.512 55.0965 51.5328 57.0961 50.7213C58.8837 49.9954 60.8422 50.0022 62.6162 50.824C63.98 51.4575 64.8243 52.9025 66.2975 53.286C67.1896 53.5188 68.3141 53.488 69.1276 53.0292C69.2848 47.643 69.5344 42.3698 68.0954 37.124C65.2857 26.8585 57.3114 18.2639 47.3204 14.6856C44.145 13.5488 40.6757 12.8058 37.2918 12.8503H37.2987ZM3.16595 56.0116V78.4055C3.16595 79.5663 5.15868 80.9462 6.3174 80.7202H82.4444C83.5518 80.8846 85.4249 79.4978 85.4249 78.4055V56.0116C85.4249 55.4535 83.1519 56.0972 82.7793 56.0972C78.7597 56.0767 76.9037 51.0261 73.0174 53.3271C70.8879 54.5872 70.4743 56.1143 67.299 56.0493C63.6074 55.974 62.459 52.745 59.7416 52.7142C57.39 52.6868 56.3407 54.9193 54.3103 55.6178C52.6868 56.176 50.9948 56.1178 49.4191 55.498C47.4537 54.7241 46.5787 52.656 44.2271 52.7005C41.5097 52.7484 40.4159 55.9945 36.6732 56.0356C33.4499 56.0698 33.1252 54.5187 30.9274 53.3374C26.8531 51.1493 25.5645 55.9397 21.2953 56.0527C20.4237 56.0767 19.2103 55.8027 18.4105 55.4501C16.5716 54.642 15.7581 52.745 13.4953 52.7176C11.1129 52.6902 9.95763 55.0563 7.81451 55.7103C7.33598 55.8575 6.26613 56.0767 5.79444 56.0801C5.27831 56.0835 3.34027 55.4535 3.16937 56.0116H3.16595Z" fill="black"/>
<path d="M74.8052 17.1716C81.238 16.3464 85.7088 22.9208 82.3557 28.4953C81.3918 30.1012 77.6832 32.7412 75.9571 33.539C74.5899 34.1691 73.5269 33.9533 72.5391 32.8542C71.6846 31.9057 69.2953 28.0878 68.9194 26.9065C67.559 22.6229 70.2729 17.7572 74.8052 17.1751V17.1716ZM75.1436 19.7329C73.585 19.9623 72.1084 21.1436 71.5171 22.5955C70.0439 26.2182 72.9903 28.4405 74.5967 31.3099C76.61 29.8957 79.8537 28.6322 80.6535 26.1086C81.7952 22.5133 78.8591 19.1884 75.1402 19.7329H75.1436Z" fill="black"/>
<path d="M77.916 44.4758H81.4161C82.8345 44.4758 83.2276 46.6981 81.8912 47.0028C81.2486 47.15 77.8613 47.1398 77.1606 47.0302C74.9354 46.6775 75.2259 42.4761 75.3627 40.8017C76.0668 32.1318 87.7531 32.9227 87.9958 40.6202C88.0334 41.7947 87.613 44.6641 85.8459 43.9724C84.4171 43.4109 85.3981 42.0241 85.4391 40.9695C85.5519 38.0144 82.2466 36.0592 79.7378 37.6617C78.873 38.2165 77.9194 39.5861 77.9194 40.6271V44.4724L77.916 44.4758Z" fill="black"/>
<path d="M5.50748 63.8257C6.26287 63.6544 7.84543 64.1133 8.5769 64.442C10.033 65.096 11.0345 66.7978 12.6546 67.0238C15.9565 67.4826 16.1445 65.2946 18.6362 64.3256C20.7178 63.5175 22.8268 63.6716 24.7272 64.8461C25.8518 65.5412 26.6071 66.8252 28.0154 67.0238C31.2455 67.4758 31.4369 65.4932 33.7714 64.442C36.8613 63.0484 40.0675 64.1955 42.2584 66.6061C43.318 67.7703 42.4088 69.0304 40.9732 68.7462C40.3136 68.616 39.2505 67.2224 38.4405 66.8389C37.1006 66.202 35.7163 66.2328 34.4516 67.0067C31.8641 68.5955 31.6454 70.0336 27.8274 69.6056C25.0075 69.2872 23.6129 66.2328 21.0118 66.3527C18.4106 66.4725 17.3545 69.2392 14.6747 69.5919C11.0892 70.0644 10.5696 68.8352 8.10862 67.1402C7.08321 66.4349 5.36734 66.5102 4.88198 66.0993C4.14026 65.4727 4.50257 64.0585 5.5109 63.8325L5.50748 63.8257Z" fill="black"/>
<path d="M51.4257 63.8427C52.5673 63.7434 53.644 63.942 54.7002 64.3905C56.9766 65.3596 57.3116 67.4346 60.405 67.0237C62.073 66.8011 62.6848 65.5411 63.97 64.7843C65.8089 63.6989 67.8324 63.5345 69.8388 64.2741C72.3852 65.2123 72.604 67.4894 75.9366 67.0271C77.526 66.808 78.4318 65.2432 79.7853 64.5583C80.9201 63.9831 84.0613 63.014 84.075 65.0754C84.0887 66.8114 81.8225 66.2156 80.486 67.1401C78.0592 68.8111 77.6046 70.0061 74.0738 69.6089C70.5429 69.2117 69.3979 64.9179 65.5081 66.8388C64.8177 67.1812 64.2468 67.9551 63.635 68.3831C61.6218 69.7904 59.3043 70.0575 57.0313 69.0713C54.4985 67.9722 53.5586 65.226 50.1508 66.8422C48.975 67.4004 47.8914 69.4651 46.4148 68.592C45.5227 68.0646 45.7996 67.1641 46.4183 66.5238C47.7376 65.1575 49.4911 64.0139 51.4257 63.8461V63.8427Z" fill="black"/>
<path d="M47.6628 19.7193C48.3293 19.5823 49.4709 20.2911 50.0999 20.6266C55.2406 23.3557 59.937 28.533 62.3604 33.8164C62.8629 34.9087 64.4181 37.7131 62.733 38.2473C61.0479 38.7815 60.812 36.5729 60.313 35.5251C57.3564 29.3274 53.2137 24.8966 47.0202 21.8285C46.3537 21.154 46.7399 19.9042 47.6628 19.7158V19.7193Z" fill="black"/>
</svg>
