<svg width="86" height="87" viewBox="0 0 86 87" fill="none" xmlns="http://www.w3.org/2000/svg">
<path d="M46.9367 18.5176C46.971 18.5621 47.6351 18.7466 47.9192 18.9857C50.2229 20.9024 48.4498 24.5445 45.5606 24.3702L44.8657 27.3427C46.923 29.6249 46.2179 32.5051 43.1679 33.2397C42.6783 36.7246 42.4935 40.0455 40.3814 42.994C39.8577 43.7252 37.9681 45.2045 38.9745 45.9904C40.5697 46.7591 42.0861 47.7157 43.7121 48.4264C49.6136 51.0059 54.6833 50.6574 58.3803 56.9815C62.5017 64.0265 59.4346 76.9275 60.4102 84.9906C60.4273 85.4997 60.2459 86.019 59.729 86.1864L2.38117 86.2684C1.54935 86.306 1.05984 85.8106 1.10092 84.9906C1.47404 77.9559 0.63537 70.4667 1.10092 63.4832C1.35081 59.766 3.19245 55.9668 5.98231 53.5171C9.50814 50.4182 13.8281 50.1927 18.0181 48.4742C18.6753 48.2043 22.6598 46.4106 22.7796 46.0655C23.3479 44.4153 21.6432 43.199 20.8969 41.8563C19.4352 39.2187 19.2846 36.1574 18.8499 33.2397C16.9466 32.8092 15.6013 31.3435 16.0463 29.2833C16.1764 28.682 16.9055 27.8962 16.9261 27.6741C16.9398 27.5135 16.0361 24.8383 15.9368 24.6367C15.7143 24.1892 14.2184 24.1926 13.4927 23.4922C11.8325 21.8932 12.4657 19.177 14.6018 18.4254C15.0057 12.2482 18.1584 6.73728 23.6491 3.78536C24.0222 3.58378 25.6859 3.03029 25.7989 2.86288C26.1138 2.40164 25.4908 1.12384 26.3945 0.727517L34.9831 0.672852C36.034 1.01109 35.3699 2.38114 35.6951 2.85946C35.7773 2.98246 37.4615 3.58036 37.8415 3.78877C42.3189 6.20429 45.4614 10.4511 46.502 15.4427C46.6081 15.9552 46.8203 18.3776 46.9265 18.5176H46.9367ZM33.5762 2.68522H27.9383C28.7496 4.6805 26.6683 4.64975 25.4052 5.27157C25.0013 8.46948 26.2165 11.5991 28.9105 13.3996C30.6734 14.5783 31.1355 14.6501 32.8779 13.3313C35.3871 11.4351 36.4654 8.45924 36.147 5.3604C34.9523 4.56092 32.7478 4.77958 33.5762 2.68522ZM16.6591 18.2067H44.8555C44.4002 13.69 42.3189 8.94781 38.2796 6.60745C38.3275 10.4887 35.7499 14.6706 32.1009 16.1363C30.6186 16.7308 29.9237 16.3618 28.5716 15.617C24.9054 13.5978 23.8169 10.7928 23.3274 6.86369C23.2965 6.62453 23.4164 6.56987 23.074 6.61428C19.2025 9.1733 17.1212 13.6695 16.6625 18.2102L16.6591 18.2067ZM15.5911 20.2943C13.9616 20.5915 14.5059 22.4604 16.0566 22.3066C25.5764 21.7019 36.0546 23.089 45.4614 22.3066C47.5289 22.1358 47.3407 20.2977 45.4614 20.2464L15.5911 20.2943ZM18.7095 24.3463H18.0283L18.5418 26.222C18.8396 26.263 18.7027 25.836 18.7095 25.6275C18.7267 25.2005 18.6993 24.77 18.7095 24.3463ZM41.268 24.3463H20.7634V28.1831C20.7634 29.4541 17.9154 28.2207 18.0352 30.2126C18.1173 31.5758 20.1986 30.7558 20.6368 31.7193C21.3488 34.8796 21.2016 38.3816 22.9132 41.2174C26.6101 47.3433 35.8629 47.1452 39.3066 40.8928C40.8264 38.1356 40.6758 34.7396 41.3981 31.7227C41.8191 30.7217 43.8183 31.569 44.0065 30.2194C44.2598 28.4257 41.268 29.3789 41.268 28.1831V24.3463ZM36.6536 46.3491C33.0183 48.2965 28.3525 48.276 24.8643 46.0074V50.3567C27.9657 53.8246 33.5728 53.8587 36.6536 50.3567V46.3491ZM22.8105 48.5665C22.4408 48.5665 22.0129 48.7783 21.9547 49.1609C22.1874 53.5922 20.9825 58.3686 24.0907 62.0414C28.6298 67.4055 37.4957 65.3248 39.2415 58.5702C39.7173 56.7253 39.8029 50.941 39.5667 48.9833C39.5017 48.4537 39.2347 48.2624 38.7007 48.2248V51.2109C38.7007 51.3305 37.2116 52.721 36.9788 52.9021C33.3092 55.7823 27.9383 55.731 24.3474 52.7483C24.0839 52.5297 22.8105 51.2553 22.8105 51.0401V48.5665ZM48.1006 84.215V52.2324L41.6069 49.7588V57.3505C41.6069 62.1815 36.3935 66.7324 31.7585 67.1356C26.1994 67.6207 19.9042 62.9844 19.9042 57.1797V49.9297L13.4105 52.147V84.215H21.27V73.3845C21.27 72.9369 22.0813 72.5713 22.5366 72.6192C23.0775 72.6738 25.1656 73.8013 26.0556 74.0678C30.3722 75.3593 34.367 75.0689 38.574 73.6031C39.132 73.4084 40.402 72.6533 40.847 72.6226C41.2441 72.5953 41.9458 73.0326 41.9458 73.3879V84.2185H48.0972L48.1006 84.215ZM11.3635 52.8303C7.77604 53.828 4.68494 57.1967 3.68196 60.7705C3.53819 61.2864 3.15822 62.8785 3.15822 63.3192V84.215H11.3601V52.8303H11.3635ZM58.3563 84.215V63.1484C58.3563 62.6769 57.9558 61.177 57.7949 60.6372C56.7303 57.0977 53.7282 53.828 50.1545 52.8269V84.2116H58.3563V84.215ZM39.8988 75.3456C34.5381 77.457 28.6948 77.416 23.3239 75.3456V84.215H39.8988V75.3456Z" fill="black"/>
<path d="M71.8884 37.4421L78.3958 38.6447L84.0371 33.168C85.7384 32.7648 85.6117 34.8387 85.5227 36.0242C85.2626 39.4476 83.2703 42.8676 80.3846 44.7126C79.854 45.0508 78.2554 45.6795 78.1767 46.0929V71.502C82.6576 75.4311 82.2947 82.8963 76.6363 85.4895C67.6026 89.6269 60.6879 77.6313 68.0921 71.502L68.1024 45.2285C67.9963 44.4256 66.5586 43.7354 65.9527 43.1102C59.613 36.5435 63.642 24.8315 72.7955 24.0047C74.1203 23.8851 77.0265 23.6665 75.9311 25.7711L70.6971 31.1009L71.885 37.4421H71.8884ZM72.5388 26.2221C65.8431 27.2334 62.7349 35.0437 66.5859 40.6059C71.2448 47.3297 82.0483 44.8493 83.3011 36.7964L78.9058 40.8621C76.448 40.3018 73.5246 40.1617 71.1353 39.475C69.7078 39.065 69.9543 38.2758 69.6873 36.998C69.232 34.8318 68.8486 32.5974 68.6124 30.404L72.5388 26.2221ZM76.1262 46.3491C74.134 46.7865 72.0595 46.4755 70.146 45.8366V70.3984C72.1622 69.8894 74.1887 69.6673 76.1262 70.5693V46.3491ZM72.8503 71.9735C64.6793 72.3664 65.4323 84.8916 73.6479 84.2117C81.504 83.5625 80.6413 71.6011 72.8503 71.9735Z" fill="black"/>
<path d="M30.4545 60.8765C32.2448 60.504 32.6967 63.2066 31.057 63.5482C29.2667 63.9206 28.8148 61.2181 30.4545 60.8765Z" fill="black"/>
<path d="M30.6291 56.6193C32.3475 56.4553 32.529 59.0348 31.0947 59.3116C29.1435 59.6874 28.873 56.7867 30.6291 56.6193Z" fill="black"/>
<path d="M28.743 8.85885C29.1196 8.74952 32.7378 8.74952 33.1144 8.85885C34.0215 9.11851 33.9873 10.6765 32.974 10.8644C32.416 10.9703 29.4619 10.9532 28.9142 10.8336C27.8051 10.5911 27.8667 9.11168 28.743 8.85885Z" fill="black"/>
<path d="M28.9142 5.44906C29.4893 5.32264 32.3681 5.32264 32.9432 5.44906C34.1139 5.7053 33.9804 7.26668 32.974 7.45459C32.5016 7.54342 29.1435 7.53659 28.743 7.42384C27.8667 7.17443 27.8051 5.69164 28.9142 5.44906Z" fill="black"/>
<path d="M71.1209 74.0163C72.2335 73.7703 74.2326 74.0231 75.4033 74.1051C75.7387 74.2623 77.6591 77.5695 77.6762 77.9932C77.7173 78.943 76.0092 81.2048 75.4444 82.0828H70.83C70.4226 81.8949 68.4372 78.4339 68.4817 78.0137C69.0054 77.1425 70.1727 74.2281 71.1209 74.0163ZM74.39 76.056L71.8364 76.138C70.6691 77.8053 70.5904 78.3793 71.8501 80.0397L74.1641 80.1354L75.4341 78.164L74.39 76.056Z" fill="black"/>
</svg>
