<svg width="69" height="78" viewBox="0 0 69 78" fill="none" xmlns="http://www.w3.org/2000/svg">
<path d="M19.3295 8.75463V12.1859C20.9445 11.5051 22.481 10.6731 24.1404 10.0783C43.8005 3.05079 64.0205 17.0336 65.0141 37.8342L65.0073 69.3342H68.1587C68.2714 69.3342 68.7085 69.8878 68.7528 70.1113C68.9236 71.0052 68.8928 75.6535 68.7665 76.6368C68.688 77.2488 68.2987 77.6167 67.6602 77.5823L46.549 77.5376C46.0266 77.2832 45.9584 76.8121 45.9106 76.293C45.7945 75.014 45.7398 71.4796 45.9276 70.2866C45.9686 70.0356 46.3271 69.3342 46.5149 69.3342H49.6664V65.5592C48.9869 66.0061 48.2494 66.3946 47.5119 66.735C27.4284 75.987 5.03687 62.1623 3.98182 40.0793L3.98865 8.57928H0.837163C0.724488 8.57928 0.287446 8.02574 0.243059 7.80227C0.0552671 6.80178 0.120141 2.59696 0.229401 1.45207C0.280617 0.922597 0.348905 0.633795 0.874721 0.382812L22.6654 0.506585C22.8839 0.730062 23.0171 0.987921 23.0683 1.30079C23.2561 2.46631 23.198 6.04539 23.0853 7.30718C23.0546 7.65099 23.0614 7.96042 22.819 8.23891C22.7098 8.36268 21.8971 8.75806 21.8015 8.75806H19.3295V8.75463ZM20.6919 2.57633H2.71166L2.45559 2.83419V6.09352L2.71166 6.35138H20.6919V2.57633ZM16.9429 8.58272H6.37531V41.1039C8.52979 68.7257 45.5077 77.3691 59.0662 52.8038C72.4028 28.6476 46.7949 1.33517 22.1635 13.4098C21.7093 13.6333 19.8178 14.6544 19.5788 14.926C19.4115 15.1186 19.2954 15.2458 19.3193 15.5243L19.3261 30.7208C21.4669 30.511 22.8156 33.5881 24.8711 33.4781C26.2812 33.4025 26.7831 32.2095 26.3529 30.9374C25.9227 29.6653 22.044 28.0562 22.0952 26.8872C22.1396 25.9211 24.7413 24.2124 25.5779 23.7139C28.6781 21.8779 33.0144 20.788 36.6063 21.2934C40.1983 21.7988 34.9299 26.9251 37.3029 28.6579C40.3349 30.872 40.6592 25.1373 41.5026 23.7895C42.1957 22.679 43.1756 23.4594 44.0224 23.9511C46.7573 25.5429 49.3625 28.6201 50.66 31.5115C51.1209 32.5395 52.712 36.2974 51.3258 36.9369C49.8474 37.6176 44.6745 35.847 45.0638 39.1923C45.4121 42.1662 50.619 40.0209 51.616 41.1898C52.316 42.015 51.3975 44.4388 51.0287 45.3912C50.0522 47.9251 48.205 50.5621 46.1632 52.3328C45.5691 52.845 43.0834 54.7119 42.4484 54.6947C42.3084 54.6913 42.0796 54.6019 41.9464 54.5297C40.946 53.9968 40.6831 50.6103 39.9217 49.5307C38.9384 48.1382 36.719 48.9256 36.5722 50.5759C36.4254 52.2262 39.6178 56.266 36.4527 56.627C32.7959 57.043 28.842 56.0906 25.6871 54.2547C24.8677 53.7768 22.2488 52.0543 22.1361 51.1604C21.9074 49.2969 27.8894 47.932 26.1412 45.2158C24.2189 42.235 21.2586 47.7532 19.2749 47.1549C18.0662 46.7905 17.018 41.3548 16.9326 40.0759L16.9394 8.57584L16.9429 8.58272ZM35.0084 23.6864H32.3657C31.6896 23.6864 29.1527 24.5425 28.4152 24.8553C27.2577 25.3504 26.1105 26.0827 25.1272 26.8597C26.4212 28.039 27.9713 28.4344 28.5791 30.2429C29.8117 33.8907 26.1412 37.1397 22.621 35.3863C22.1532 35.1525 20.5928 33.8529 20.4153 33.8288C20.0807 33.7807 20.0431 34.1417 19.9578 34.3617C18.8959 37.1535 19.1349 41.262 20.1729 44.0366C20.4836 44.2566 22.4195 42.7438 22.959 42.5307C26.5271 41.1176 29.9961 44.9511 28.1625 48.4546C27.4831 49.7507 26.09 50.4315 24.9564 51.2291C27.7118 53.4845 31.2867 54.6191 34.8411 54.5744C34.807 53.2817 34.0012 52.0646 34.0353 50.7615C34.1207 47.4884 37.4633 45.7316 40.3007 47.1034C42.2879 48.0626 42.2025 49.9054 43.1039 51.6554C46.0505 49.6682 48.1436 46.6667 49.1542 43.2492H46.5115C46.4125 43.2492 45.4564 43.0051 45.2789 42.9433C41.6187 41.6608 41.6187 36.2527 45.2789 34.9703C45.4564 34.9084 46.4125 34.6643 46.5115 34.6643H49.1542C48.1402 31.2468 46.0505 28.2487 43.1039 26.2581C42.4552 27.2826 42.4859 28.5341 41.7996 29.5724C39.9251 32.4089 35.5001 31.8622 34.4177 28.651C33.7826 26.7635 34.6499 25.4879 35.0084 23.6795V23.6864ZM62.6172 69.3377V50.9747L60.5378 54.9732C58.3048 58.4664 55.5733 61.8013 52.0496 64.0155V69.3342H62.6172V69.3377ZM48.3006 75.3441H66.2808L66.5369 75.0862V71.8269L66.2808 71.569H48.3006V75.3441Z" fill="black"/>
<path d="M34.1173 34.0281C35.9679 33.8081 37.8697 34.8361 38.7916 36.4417C41.5026 41.1553 35.862 46.1647 31.5974 42.8297C28.1148 40.1033 29.8185 34.5404 34.1173 34.0281ZM33.9397 36.5998C30.5595 37.3046 32.2837 43.2801 35.8688 41.2894C38.3716 39.897 37.0092 35.9638 33.9397 36.5998Z" fill="black"/>
</svg>
