<svg width="89" height="89" viewBox="0 0 89 89" fill="none" xmlns="http://www.w3.org/2000/svg">
<path d="M32.1478 29.8557L32.1409 29.6086C29.3851 26.7404 29.2891 24.1879 32.237 21.4706C36.2316 17.7858 41.1426 14.6363 45.1852 10.9481C48.2567 8.85524 50.9473 9.92911 52.7936 12.9003L65.7796 2.41547C78.7999 -6.28181 89.1297 14.3378 88.3473 24.802C88.2169 26.5655 87.8496 28.7852 86.5456 30.0238C84.0335 32.4082 81.1473 34.0311 78.1513 31.2315L68.2231 18.8803L67.9039 18.7499L65.3987 20.853L76.6722 34.7687C77.5885 36.6522 76.8713 37.7673 75.502 39.0264C72.4511 41.8294 71.3803 40.2958 68.2986 38.6765L59.4719 45.9568C61.2668 48.9211 60.5152 51.4325 57.8384 53.395C56.2391 54.5649 55.2199 54.8702 53.2603 54.4036C52.7936 54.2938 52.3646 53.8135 51.8601 54.0914L11.399 86.9661C4.48386 91.1861 -2.70238 82.8559 2.24288 76.6152L43.1021 43.1332L40.82 40.6629L31.0702 48.5677C24.8895 52.3897 17.8165 45.6652 21.1488 39.3352C22.5661 36.642 29.1415 32.4528 31.7222 30.0272C31.832 29.9243 31.9968 29.8694 32.1443 29.8591L32.1478 29.8557ZM85.0973 25.2343C85.3273 25.2034 85.3959 25.001 85.4302 24.7985C86.1303 20.6369 83.6937 14.4133 81.5694 10.8623C78.0621 5.00579 73.5081 0.360377 66.6787 5.3729C63.192 7.93233 59.3587 11.2603 56.047 14.0976C55.6866 14.4064 55.213 14.7804 54.7806 14.9759L59.822 21.45L70.1312 13.1027C72.1731 11.8916 74.4553 12.2724 76.106 13.9261C78.8995 16.7325 82.2661 21.4843 84.8468 24.7196C84.9704 24.874 85.1111 25.0216 85.1008 25.2343H85.0973ZM48.0371 12.7664C47.6493 12.8042 47.2203 13.1301 46.8977 13.3463C42.9717 17.0104 37.8686 20.112 34.0284 23.7761C32.4257 25.3063 32.8479 25.7695 34.0353 27.3717C39.9963 35.3965 47.1345 42.8896 53.1333 50.9281C54.3311 52.4069 56.1808 51.2884 57.0799 50.0704C58.3154 48.3996 56.6304 47.5419 55.7861 46.2175C54.2796 43.8502 53.9604 41.2668 55.0758 38.6456C56.0984 36.2371 58.4355 35.2971 59.5371 32.8268C60.8996 29.7699 60.299 27.0183 58.4321 24.3868C55.7553 20.6094 52.1724 17.1168 49.451 13.3257C49.1284 13.0135 48.4832 12.715 48.0337 12.763L48.0371 12.7664ZM80.358 29.2861C80.8419 29.739 81.5969 29.8111 82.2283 29.6464C82.3656 29.6086 83.7692 28.576 83.8207 28.4936C83.9133 28.3529 83.9236 28.2912 83.8138 28.1505L73.5287 15.645C73.1718 15.4117 72.8045 15.2779 72.3721 15.3327C71.8848 15.3979 70.2513 16.4752 70.4366 17.0036L80.358 29.2827V29.2861ZM57.6805 43.562C60.7211 41.3594 63.5112 38.601 66.5072 36.3743C67.1729 35.8803 67.9142 35.1289 68.8236 35.4171C69.5889 35.6607 71.8093 37.5649 72.3275 37.5683L74.1086 36.2851L63.0513 22.6817L61.634 23.8002C63.9882 28.0236 63.6347 33.0052 60.5083 36.7174C59.7019 37.6746 58.336 38.553 57.8178 39.6817C57.2241 40.9752 57.2035 42.2343 57.6805 43.5689V43.562ZM33.9769 32.1098C30.552 34.9094 26.7323 37.4757 23.7467 40.7281C21.7596 44.4438 25.9568 48.3001 29.4572 46.094L38.9222 38.4157C39.0697 38.1653 38.8707 37.9594 38.7334 37.7467C37.5494 35.9146 35.5693 34.2198 34.375 32.3362L33.9769 32.1063V32.1098ZM44.7734 45.6343L5.0707 77.8983C1.13097 81.3944 5.50311 87.2543 10.0297 84.3964L49.9452 51.8305L49.8834 51.4394L45.2607 45.7715C45.1235 45.624 44.9656 45.576 44.77 45.6309L44.7734 45.6343Z" fill="black"/>
<path d="M45.9916 19.1067C47.1035 18.9969 47.9511 19.515 48.6856 20.2664C49.4886 21.0898 54.0049 26.713 54.1799 27.4506C54.4922 28.7852 54.149 29.6944 53.2293 30.6345C52.5669 31.3138 48.2497 34.8167 47.5668 35.0809C46.2284 35.6024 45.0581 35.3073 44.0526 34.3158C43.0471 33.3243 39.5466 29.0734 38.8603 27.8589C37.7346 25.8724 38.3626 24.8157 39.8555 23.4331C40.8095 22.5479 43.5756 20.1806 44.6017 19.6111C44.9963 19.3915 45.5454 19.1479 45.9916 19.1033V19.1067ZM46.2833 21.9852L41.2385 26.1778L46.2833 32.4185L51.3384 28.3907L46.2867 21.9818L46.2833 21.9852Z" fill="black"/>
</svg>
