<svg width="38" height="38" viewBox="0 0 38 38" fill="none" xmlns="http://www.w3.org/2000/svg">
<mask id="mask0_101_17" style="mask-type:alpha" maskUnits="userSpaceOnUse" x="0" y="0" width="38" height="38">
<rect width="38" height="38" fill="#D9D9D9"/>
</mask>
<g mask="url(#mask0_101_17)">
<path d="M19.0028 34.0415C16.9224 34.0415 14.9669 33.6467 13.1364 32.8572C11.3058 32.0676 9.71346 30.9961 8.35937 29.6426C7.00525 28.2891 5.93324 26.6975 5.14334 24.8677C4.35345 23.038 3.9585 21.0829 3.9585 19.0025C3.9585 16.9221 4.35334 14.9667 5.14303 13.1361C5.93271 11.3056 7.00443 9.71322 8.35818 8.35913C9.71193 7.00501 11.3038 5.933 13.1339 5.1431C14.964 4.3532 16.9194 3.95825 19.0001 3.95825C20.3175 3.95825 21.5944 4.12623 22.8306 4.46219C24.0668 4.79815 25.2492 5.28381 26.3779 5.91917C26.6823 6.0897 26.8813 6.33531 26.9747 6.65602C27.068 6.97675 27.0132 7.27615 26.8102 7.55424C26.6073 7.83233 26.3388 8.00639 26.0049 8.07642C25.671 8.14646 25.3487 8.09622 25.0382 7.92569C24.1125 7.40807 23.1387 7.01325 22.1166 6.74124C21.0945 6.46922 20.0557 6.33321 19.0001 6.33321C15.4904 6.33321 12.5019 7.56689 10.0345 10.0343C7.56714 12.5016 6.33346 15.4902 6.33346 18.9999C6.33346 22.5096 7.56714 25.4981 10.0345 27.9655C12.5019 30.4329 15.4904 31.6665 19.0001 31.6665C22.5098 31.6665 25.4984 30.4329 27.9658 27.9655C30.4331 25.4981 31.6668 22.5096 31.6668 18.9999C31.6668 18.6935 31.6551 18.3966 31.6318 18.1093C31.6084 17.822 31.5684 17.5272 31.5115 17.2247C31.4587 16.8875 31.5166 16.5652 31.685 16.2578C31.8535 15.9504 32.1072 15.751 32.446 15.6596C32.7648 15.5683 33.0608 15.6079 33.3338 15.7784C33.6068 15.9489 33.7697 16.1945 33.8225 16.5152C33.8956 16.9151 33.9504 17.3196 33.9869 17.7287C34.0235 18.1378 34.0418 18.5616 34.0418 18.9999C34.0418 21.0806 33.647 23.036 32.8574 24.8661C32.0679 26.6962 30.9963 28.2881 29.6429 29.6418C28.2893 30.9956 26.6977 32.0673 24.868 32.857C23.0382 33.6467 21.0832 34.0415 19.0028 34.0415ZM16.753 22.398L31.5389 7.58773C31.7581 7.36852 32.0296 7.25231 32.3534 7.23912C32.6772 7.22592 32.963 7.34323 33.2108 7.59105C33.4379 7.81821 33.5515 8.0952 33.5515 8.42203C33.5515 8.74883 33.4368 9.02691 33.2075 9.25629L17.7548 24.7333C17.4685 25.0195 17.1346 25.1627 16.753 25.1627C16.3714 25.1627 16.0375 25.0195 15.7512 24.7333L11.4062 20.3883C11.187 20.1691 11.0749 19.8935 11.0698 19.5616C11.0647 19.2298 11.1768 18.9492 11.4062 18.7198C11.6356 18.4904 11.9137 18.3757 12.2405 18.3757C12.5673 18.3757 12.8454 18.4904 13.0748 18.7198L16.753 22.398Z" fill="#4CAF50"/>
</g>
</svg>
