<svg width="226" height="497" viewBox="0 0 226 497" fill="none" xmlns="http://www.w3.org/2000/svg">
<g opacity="0.1" filter="url(#filter0_f_2_235)">
<path d="M-22.5 4C-54.6082 4 -86.402 10.3371 -116.066 22.6495C-145.73 34.9619 -172.684 53.0085 -195.388 75.7588C-218.092 98.5092 -236.101 125.518 -248.389 155.243C-260.676 184.967 -267 216.826 -267 249H-259.477C-259.477 217.816 -253.347 186.938 -241.438 158.127C-229.529 129.317 -212.073 103.14 -190.068 81.0893C-168.063 59.039 -141.939 41.5477 -113.187 29.6141C-84.4358 17.6806 -53.6203 11.5385 -22.5 11.5385C8.62024 11.5385 39.4358 17.6806 68.1871 29.6141C96.9385 41.5477 123.063 59.039 145.068 81.0893C167.073 103.14 184.529 129.317 196.438 158.127C208.347 186.938 214.477 217.816 214.477 249H222C222 216.826 215.676 184.967 203.389 155.243C191.101 125.518 173.092 98.5092 150.388 75.7588C127.684 53.0085 100.73 34.9619 71.0661 22.6495C41.402 10.3371 9.60818 4 -22.5 4Z" fill="#3F503B"/>
<path d="M-22.5 34.1538C-79.3644 34.1538 -133.9 56.7893 -174.109 97.0808C-214.318 137.372 -236.908 192.019 -236.908 249H-229.385C-229.385 194.019 -207.588 141.289 -168.789 102.411C-129.991 63.5336 -77.3692 41.6923 -22.5 41.6923C32.3692 41.6923 84.9911 63.5336 123.79 102.411C162.588 141.289 184.385 194.019 184.385 249H191.908C191.908 192.019 169.318 137.372 129.109 97.0808C88.8999 56.7894 34.3645 34.1538 -22.5 34.1538Z" fill="#3F503B"/>
<path d="M-152.831 118.403C-118.265 83.7663 -71.3835 64.3077 -22.5 64.3077C26.3835 64.3077 73.2648 83.7663 107.831 118.403C142.397 153.039 161.815 200.017 161.815 249H154.292C154.292 202.016 135.666 156.956 102.511 123.733C69.356 90.5105 24.3882 71.8461 -22.5 71.8461C-69.3882 71.8461 -114.356 90.5105 -147.511 123.733C-180.666 156.956 -199.292 202.016 -199.292 249H-206.815C-206.815 200.016 -187.396 153.039 -152.831 118.403Z" fill="#3F503B"/>
<path d="M-22.5 94.4615C-63.4025 94.4615 -102.63 110.743 -131.552 139.725C-160.475 168.706 -176.723 208.014 -176.723 249H-169.2C-169.2 210.013 -153.744 172.623 -126.233 145.055C-98.721 117.487 -61.4072 102 -22.5 102C16.4073 102 53.721 117.487 81.2326 145.055C108.744 172.623 124.2 210.013 124.2 249H131.723C131.723 208.014 115.475 168.706 86.5522 139.725C57.6297 110.743 18.4025 94.4615 -22.5 94.4615Z" fill="#3F503B"/>
<path d="M-110.274 161.047C-86.9947 137.72 -55.4215 124.615 -22.5 124.615C10.4216 124.615 41.9947 137.72 65.2737 161.047C88.5527 184.373 101.631 216.011 101.631 249H94.1077C94.1077 218.01 81.8223 188.29 59.9541 166.377C38.0859 144.464 8.42627 132.154 -22.5 132.154C-53.4263 132.154 -83.0859 144.464 -104.954 166.377C-126.822 188.29 -139.108 218.01 -139.108 249H-146.631C-146.631 216.011 -133.553 184.373 -110.274 161.047Z" fill="#3F503B"/>
<path d="M-22.5 154.769C-47.4405 154.769 -71.3596 164.697 -88.9952 182.369C-106.631 200.04 -116.538 224.008 -116.538 249H-109.015C-109.015 226.008 -99.9004 203.957 -83.6756 187.699C-67.4508 171.441 -45.4453 162.308 -22.5 162.308C0.445282 162.308 22.4508 171.441 38.6756 187.699C54.9004 203.957 64.0154 226.008 64.0154 249H71.5385C71.5385 224.008 61.6309 200.04 43.9952 182.369C26.3596 164.697 2.44058 154.769 -22.5 154.769Z" fill="#3F503B"/>
<path d="M-22.5 493C-54.6082 493 -86.402 486.689 -116.066 474.427C-145.73 462.164 -172.684 444.192 -195.388 421.534C-218.092 398.877 -236.101 371.978 -248.389 342.375C-260.676 312.771 -267 281.043 -267 249H-259.477C-259.477 280.057 -253.347 310.809 -241.438 339.502C-229.529 368.194 -212.073 394.265 -190.068 416.225C-168.063 438.186 -141.939 455.606 -113.187 467.49C-84.4358 479.375 -53.6203 485.492 -22.5 485.492C8.62024 485.492 39.4358 479.375 68.1871 467.49C96.9385 455.606 123.063 438.186 145.068 416.225C167.073 394.265 184.529 368.194 196.438 339.502C208.347 310.809 214.477 280.057 214.477 249H222C222 281.043 215.676 312.771 203.389 342.375C191.101 371.978 173.092 398.877 150.388 421.534C127.684 444.192 100.73 462.164 71.0661 474.427C41.402 486.689 9.60818 493 -22.5 493Z" fill="#3F503B"/>
<path d="M-22.5 462.969C-79.3644 462.969 -133.9 440.426 -174.109 400.299C-214.318 360.172 -236.908 305.748 -236.908 249H-229.385C-229.385 303.757 -207.588 356.271 -168.789 394.99C-129.991 433.709 -77.3692 455.462 -22.5 455.462C32.3692 455.462 84.9911 433.709 123.79 394.99C162.588 356.271 184.385 303.757 184.385 249H191.908C191.908 305.748 169.318 360.172 129.109 400.299C88.8999 440.426 34.3645 462.969 -22.5 462.969Z" fill="#3F503B"/>
<path d="M-152.831 379.064C-118.265 413.559 -71.3835 432.938 -22.5 432.938C26.3835 432.938 73.2648 413.559 107.831 379.064C142.397 344.569 161.815 297.784 161.815 249H154.292C154.292 295.792 135.666 340.668 102.511 373.755C69.356 406.843 24.3882 425.431 -22.5 425.431C-69.3882 425.431 -114.356 406.843 -147.511 373.755C-180.666 340.668 -199.292 295.792 -199.292 249H-206.815C-206.815 297.784 -187.396 344.569 -152.831 379.064Z" fill="#3F503B"/>
<path d="M-22.5 402.908C-63.4025 402.908 -102.63 386.692 -131.552 357.829C-160.475 328.966 -176.723 289.819 -176.723 249H-169.2C-169.2 287.828 -153.744 325.065 -126.233 352.52C-98.721 379.976 -61.4072 395.4 -22.5 395.4C16.4073 395.4 53.721 379.976 81.2326 352.52C108.744 325.065 124.2 287.828 124.2 249H131.723C131.723 289.819 115.475 328.966 86.5522 357.829C57.6297 386.692 18.4025 402.908 -22.5 402.908Z" fill="#3F503B"/>
<path d="M-110.274 336.594C-86.9947 359.826 -55.4215 372.877 -22.5 372.877C10.4216 372.877 41.9947 359.826 65.2737 336.594C88.5527 313.363 101.631 281.854 101.631 249H94.1077C94.1077 279.863 81.8223 309.462 59.9541 331.285C38.0859 353.109 8.42627 365.369 -22.5 365.369C-53.4263 365.369 -83.0859 353.109 -104.954 331.285C-126.822 309.462 -139.108 279.863 -139.108 249H-146.631C-146.631 281.854 -133.553 313.363 -110.274 336.594Z" fill="#3F503B"/>
<path d="M-22.5 342.846C-47.4405 342.846 -71.3596 332.959 -88.9952 315.359C-106.631 297.76 -116.538 273.89 -116.538 249H-109.015C-109.015 271.898 -99.9004 293.859 -83.6756 310.051C-67.4508 326.242 -45.4453 335.338 -22.5 335.338C0.445282 335.338 22.4508 326.242 38.6756 310.051C54.9004 293.859 64.0154 271.898 64.0154 249H71.5385C71.5385 273.89 61.6309 297.76 43.9952 315.359C26.3596 332.959 2.44058 342.846 -22.5 342.846Z" fill="#3F503B"/>
</g>
<defs>
<filter id="filter0_f_2_235" x="-271" y="0" width="497" height="497" filterUnits="userSpaceOnUse" color-interpolation-filters="sRGB">
<feFlood flood-opacity="0" result="BackgroundImageFix"/>
<feBlend mode="normal" in="SourceGraphic" in2="BackgroundImageFix" result="shape"/>
<feGaussianBlur stdDeviation="2" result="effect1_foregroundBlur_2_235"/>
</filter>
</defs>
</svg>
